<mxfile host="app.diagrams.net" agent="Mozilla/5.0 (Macintosh; Intel Mac OS X 10_15_7) AppleWebKit/537.36 (KHTML, like Gecko) Chrome/129.0.0.0 Safari/537.36" version="24.8.4">
  <diagram name="Page-1" id="BnYVNKoPdC0fC8qjrAS4">
    <mxGraphModel dx="1272" dy="807" grid="1" gridSize="10" guides="1" tooltips="1" connect="1" arrows="1" fold="1" page="1" pageScale="1" pageWidth="850" pageHeight="1100" math="0" shadow="0">
      <root>
        <mxCell id="0" />
        <mxCell id="1" parent="0" />
        <mxCell id="_s3bPg3lB8pmkuJawsRT-1" value="&lt;u&gt;UserID&lt;/u&gt;" style="rounded=0;whiteSpace=wrap;html=1;container=0;" vertex="1" parent="1">
          <mxGeometry x="41.224489795918366" y="67.80219780219781" width="89.79591836734694" height="56.7032967032967" as="geometry" />
        </mxCell>
        <mxCell id="_s3bPg3lB8pmkuJawsRT-2" value="Username" style="rounded=0;whiteSpace=wrap;html=1;container=0;" vertex="1" parent="1">
          <mxGeometry x="131.0204081632653" y="67.80219780219781" width="89.79591836734694" height="56.7032967032967" as="geometry" />
        </mxCell>
        <mxCell id="_s3bPg3lB8pmkuJawsRT-3" value="Password" style="rounded=0;whiteSpace=wrap;html=1;container=0;" vertex="1" parent="1">
          <mxGeometry x="220.81632653061226" y="67.80219780219781" width="89.79591836734694" height="56.7032967032967" as="geometry" />
        </mxCell>
        <mxCell id="_s3bPg3lB8pmkuJawsRT-4" value="Email" style="rounded=0;whiteSpace=wrap;html=1;container=0;" vertex="1" parent="1">
          <mxGeometry x="310.6122448979592" y="67.80219780219781" width="89.79591836734694" height="56.7032967032967" as="geometry" />
        </mxCell>
        <mxCell id="_s3bPg3lB8pmkuJawsRT-5" value="PaymentMethod" style="rounded=0;whiteSpace=wrap;html=1;container=0;" vertex="1" parent="1">
          <mxGeometry x="400.4081632653061" y="67.80219780219781" width="89.79591836734694" height="56.7032967032967" as="geometry" />
        </mxCell>
        <mxCell id="_s3bPg3lB8pmkuJawsRT-6" value="IsAuctioneer" style="rounded=0;whiteSpace=wrap;html=1;container=0;" vertex="1" parent="1">
          <mxGeometry x="490.2040816326531" y="67.80219780219781" width="78.57142857142857" height="56.7032967032967" as="geometry" />
        </mxCell>
        <mxCell id="_s3bPg3lB8pmkuJawsRT-7" value="&lt;b&gt;USERS&lt;/b&gt;" style="text;html=1;align=center;verticalAlign=middle;resizable=0;points=[];autosize=1;strokeColor=none;fillColor=none;container=0;" vertex="1" parent="1">
          <mxGeometry x="41.224489795918366" y="30" width="60" height="30" as="geometry" />
        </mxCell>
        <mxCell id="_s3bPg3lB8pmkuJawsRT-8" value="&lt;u&gt;ItemID&lt;/u&gt;" style="rounded=0;whiteSpace=wrap;html=1;container=0;" vertex="1" parent="1">
          <mxGeometry x="41.224489795918366" y="237.9120879120879" width="89.79591836734694" height="56.7032967032967" as="geometry" />
        </mxCell>
        <mxCell id="_s3bPg3lB8pmkuJawsRT-9" value="Name" style="rounded=0;whiteSpace=wrap;html=1;container=0;" vertex="1" parent="1">
          <mxGeometry x="131.0204081632653" y="237.9120879120879" width="89.79591836734694" height="56.7032967032967" as="geometry" />
        </mxCell>
        <mxCell id="_s3bPg3lB8pmkuJawsRT-10" value="Description" style="rounded=0;whiteSpace=wrap;html=1;container=0;" vertex="1" parent="1">
          <mxGeometry x="220.81632653061226" y="237.9120879120879" width="89.79591836734694" height="56.7032967032967" as="geometry" />
        </mxCell>
        <mxCell id="_s3bPg3lB8pmkuJawsRT-11" value="StartingPrice" style="rounded=0;whiteSpace=wrap;html=1;container=0;" vertex="1" parent="1">
          <mxGeometry x="310.6122448979592" y="237.9120879120879" width="89.79591836734694" height="56.7032967032967" as="geometry" />
        </mxCell>
        <mxCell id="_s3bPg3lB8pmkuJawsRT-12" value="BuyNowPrice" style="rounded=0;whiteSpace=wrap;html=1;container=0;" vertex="1" parent="1">
          <mxGeometry x="400.4081632653061" y="237.9120879120879" width="89.79591836734694" height="56.7032967032967" as="geometry" />
        </mxCell>
        <mxCell id="_s3bPg3lB8pmkuJawsRT-13" value="Status" style="rounded=0;whiteSpace=wrap;html=1;container=0;" vertex="1" parent="1">
          <mxGeometry x="490.2040816326531" y="237.9120879120879" width="89.79591836734694" height="56.7032967032967" as="geometry" />
        </mxCell>
        <mxCell id="_s3bPg3lB8pmkuJawsRT-14" value="&lt;b&gt;ITEMS&lt;/b&gt;" style="text;html=1;align=center;verticalAlign=middle;resizable=0;points=[];autosize=1;strokeColor=none;fillColor=none;container=0;" vertex="1" parent="1">
          <mxGeometry x="41.224489795918366" y="200.1098901098901" width="60" height="30" as="geometry" />
        </mxCell>
        <mxCell id="_s3bPg3lB8pmkuJawsRT-15" value="&lt;u&gt;AuctionID&lt;/u&gt;" style="rounded=0;whiteSpace=wrap;html=1;container=0;" vertex="1" parent="1">
          <mxGeometry x="41.224489795918366" y="389.1208791208791" width="89.79591836734694" height="56.7032967032967" as="geometry" />
        </mxCell>
        <mxCell id="_s3bPg3lB8pmkuJawsRT-16" value="StartDateTime" style="rounded=0;whiteSpace=wrap;html=1;container=0;" vertex="1" parent="1">
          <mxGeometry x="131.0204081632653" y="389.1208791208791" width="89.79591836734694" height="56.7032967032967" as="geometry" />
        </mxCell>
        <mxCell id="_s3bPg3lB8pmkuJawsRT-17" value="EndDateTime" style="rounded=0;whiteSpace=wrap;html=1;container=0;" vertex="1" parent="1">
          <mxGeometry x="220.81632653061226" y="389.1208791208791" width="89.79591836734694" height="56.7032967032967" as="geometry" />
        </mxCell>
        <mxCell id="_s3bPg3lB8pmkuJawsRT-18" value="Status" style="rounded=0;whiteSpace=wrap;html=1;container=0;" vertex="1" parent="1">
          <mxGeometry x="310.6122448979592" y="389.1208791208791" width="89.79591836734694" height="56.7032967032967" as="geometry" />
        </mxCell>
        <mxCell id="_s3bPg3lB8pmkuJawsRT-19" value="&lt;b&gt;AUCTIONS&lt;/b&gt;" style="text;html=1;align=center;verticalAlign=middle;resizable=0;points=[];autosize=1;strokeColor=none;fillColor=none;container=0;" vertex="1" parent="1">
          <mxGeometry x="30" y="351.3186813186813" width="90" height="30" as="geometry" />
        </mxCell>
        <mxCell id="_s3bPg3lB8pmkuJawsRT-20" value="&lt;u&gt;BidID&lt;/u&gt;" style="rounded=0;whiteSpace=wrap;html=1;container=0;" vertex="1" parent="1">
          <mxGeometry x="37.482993197278915" y="540.3296703296703" width="89.79591836734694" height="56.7032967032967" as="geometry" />
        </mxCell>
        <mxCell id="_s3bPg3lB8pmkuJawsRT-21" value="BidPrice" style="rounded=0;whiteSpace=wrap;html=1;container=0;" vertex="1" parent="1">
          <mxGeometry x="127.27891156462584" y="540.3296703296703" width="89.79591836734694" height="56.7032967032967" as="geometry" />
        </mxCell>
        <mxCell id="_s3bPg3lB8pmkuJawsRT-22" value="BidTime" style="rounded=0;whiteSpace=wrap;html=1;container=0;" vertex="1" parent="1">
          <mxGeometry x="217.07482993197277" y="540.3296703296703" width="89.79591836734694" height="56.7032967032967" as="geometry" />
        </mxCell>
        <mxCell id="_s3bPg3lB8pmkuJawsRT-23" value="BidSuccess" style="rounded=0;whiteSpace=wrap;html=1;container=0;" vertex="1" parent="1">
          <mxGeometry x="306.87074829931976" y="540.3296703296703" width="89.79591836734694" height="56.7032967032967" as="geometry" />
        </mxCell>
        <mxCell id="_s3bPg3lB8pmkuJawsRT-24" value="&lt;b&gt;BIDS&lt;/b&gt;" style="text;html=1;align=center;verticalAlign=middle;resizable=0;points=[];autosize=1;strokeColor=none;fillColor=none;container=0;" vertex="1" parent="1">
          <mxGeometry x="37.482993197278915" y="502.5274725274725" width="50" height="30" as="geometry" />
        </mxCell>
        <mxCell id="_s3bPg3lB8pmkuJawsRT-25" value="&lt;u&gt;CredibilityID&lt;/u&gt;" style="rounded=0;whiteSpace=wrap;html=1;container=0;" vertex="1" parent="1">
          <mxGeometry x="37.482993197278915" y="691.5384615384615" width="89.79591836734694" height="56.7032967032967" as="geometry" />
        </mxCell>
        <mxCell id="_s3bPg3lB8pmkuJawsRT-26" value="CredibilityScore" style="rounded=0;whiteSpace=wrap;html=1;container=0;" vertex="1" parent="1">
          <mxGeometry x="127.27891156462584" y="691.5384615384615" width="89.79591836734694" height="56.7032967032967" as="geometry" />
        </mxCell>
        <mxCell id="_s3bPg3lB8pmkuJawsRT-27" value="LastUpdated" style="rounded=0;whiteSpace=wrap;html=1;container=0;" vertex="1" parent="1">
          <mxGeometry x="217.07482993197277" y="691.5384615384615" width="89.79591836734694" height="56.7032967032967" as="geometry" />
        </mxCell>
        <mxCell id="_s3bPg3lB8pmkuJawsRT-28" value="&lt;b&gt;CREDIBILITY&lt;/b&gt;" style="text;html=1;align=center;verticalAlign=middle;resizable=0;points=[];autosize=1;strokeColor=none;fillColor=none;container=0;" vertex="1" parent="1">
          <mxGeometry x="37.482993197278915" y="653.7362637362637" width="100" height="30" as="geometry" />
        </mxCell>
        <mxCell id="_s3bPg3lB8pmkuJawsRT-29" value="&lt;u&gt;WinID&lt;/u&gt;" style="rounded=0;whiteSpace=wrap;html=1;container=0;" vertex="1" parent="1">
          <mxGeometry x="37.482993197278915" y="833.2967032967033" width="89.79591836734694" height="56.7032967032967" as="geometry" />
        </mxCell>
        <mxCell id="_s3bPg3lB8pmkuJawsRT-30" value="Date" style="rounded=0;whiteSpace=wrap;html=1;container=0;" vertex="1" parent="1">
          <mxGeometry x="127.27891156462584" y="833.2967032967033" width="89.79591836734694" height="56.7032967032967" as="geometry" />
        </mxCell>
        <mxCell id="_s3bPg3lB8pmkuJawsRT-31" value="Satisfied" style="rounded=0;whiteSpace=wrap;html=1;container=0;" vertex="1" parent="1">
          <mxGeometry x="217.07482993197277" y="833.2967032967033" width="89.79591836734694" height="56.7032967032967" as="geometry" />
        </mxCell>
        <mxCell id="_s3bPg3lB8pmkuJawsRT-32" value="PaymentSuccess" style="rounded=0;whiteSpace=wrap;html=1;container=0;" vertex="1" parent="1">
          <mxGeometry x="306.87074829931976" y="833.2967032967033" width="89.79591836734694" height="56.7032967032967" as="geometry" />
        </mxCell>
        <mxCell id="_s3bPg3lB8pmkuJawsRT-33" value="&lt;b&gt;WINNINGS&lt;/b&gt;" style="text;html=1;align=center;verticalAlign=middle;resizable=0;points=[];autosize=1;strokeColor=none;fillColor=none;container=0;" vertex="1" parent="1">
          <mxGeometry x="37.482993197278915" y="795.4945054945055" width="80" height="30" as="geometry" />
        </mxCell>
        <mxCell id="_s3bPg3lB8pmkuJawsRT-34" value="Winning_bid" style="rounded=0;whiteSpace=wrap;html=1;container=0;" vertex="1" parent="1">
          <mxGeometry x="392.9251700680272" y="833.2967032967033" width="89.79591836734694" height="56.7032967032967" as="geometry" />
        </mxCell>
        <mxCell id="_s3bPg3lB8pmkuJawsRT-39" value="Users_cred" style="rounded=0;whiteSpace=wrap;html=1;container=0;" vertex="1" parent="1">
          <mxGeometry x="306.87074829931976" y="691.5384615384615" width="89.79591836734694" height="56.7032967032967" as="geometry" />
        </mxCell>
        <mxCell id="_s3bPg3lB8pmkuJawsRT-42" value="" style="group" vertex="1" connectable="0" parent="1">
          <mxGeometry x="437.82312925170066" y="653.7362637362637" as="geometry" />
        </mxCell>
        <mxCell id="_s3bPg3lB8pmkuJawsRT-37" value="" style="edgeStyle=segmentEdgeStyle;endArrow=classic;html=1;curved=0;rounded=0;endSize=8;startSize=8;entryX=0.5;entryY=1;entryDx=0;entryDy=0;" edge="1" parent="_s3bPg3lB8pmkuJawsRT-42" target="_s3bPg3lB8pmkuJawsRT-20">
          <mxGeometry width="50" height="50" relative="1" as="geometry">
            <mxPoint as="sourcePoint" />
            <mxPoint x="-37.41496598639458" y="42.52747252747258" as="targetPoint" />
          </mxGeometry>
        </mxCell>
        <mxCell id="_s3bPg3lB8pmkuJawsRT-38" value="" style="endArrow=none;html=1;rounded=0;exitX=0.5;exitY=0;exitDx=0;exitDy=0;" edge="1" parent="_s3bPg3lB8pmkuJawsRT-42" source="_s3bPg3lB8pmkuJawsRT-34">
          <mxGeometry width="50" height="50" relative="1" as="geometry">
            <mxPoint x="-37.41496598639458" y="122.85714285714289" as="sourcePoint" />
            <mxPoint as="targetPoint" />
          </mxGeometry>
        </mxCell>
        <mxCell id="_s3bPg3lB8pmkuJawsRT-47" value="" style="group" vertex="1" connectable="0" parent="1">
          <mxGeometry x="120" y="130" width="610" height="650" as="geometry" />
        </mxCell>
        <mxCell id="_s3bPg3lB8pmkuJawsRT-43" value="" style="edgeStyle=segmentEdgeStyle;endArrow=classic;html=1;curved=0;rounded=0;endSize=8;startSize=8;" edge="1" parent="_s3bPg3lB8pmkuJawsRT-47">
          <mxGeometry width="50" height="50" relative="1" as="geometry">
            <mxPoint x="610" y="70" as="sourcePoint" />
            <mxPoint as="targetPoint" />
          </mxGeometry>
        </mxCell>
        <mxCell id="_s3bPg3lB8pmkuJawsRT-44" value="" style="endArrow=none;html=1;rounded=0;" edge="1" parent="_s3bPg3lB8pmkuJawsRT-47">
          <mxGeometry width="50" height="50" relative="1" as="geometry">
            <mxPoint x="610" y="650" as="sourcePoint" />
            <mxPoint x="610" y="70" as="targetPoint" />
          </mxGeometry>
        </mxCell>
        <mxCell id="_s3bPg3lB8pmkuJawsRT-45" value="" style="endArrow=none;html=1;rounded=0;" edge="1" parent="_s3bPg3lB8pmkuJawsRT-47">
          <mxGeometry width="50" height="50" relative="1" as="geometry">
            <mxPoint x="230" y="650" as="sourcePoint" />
            <mxPoint x="610" y="650" as="targetPoint" />
          </mxGeometry>
        </mxCell>
        <mxCell id="_s3bPg3lB8pmkuJawsRT-46" value="" style="endArrow=none;html=1;rounded=0;entryX=0.48;entryY=0.965;entryDx=0;entryDy=0;entryPerimeter=0;" edge="1" parent="_s3bPg3lB8pmkuJawsRT-47" target="_s3bPg3lB8pmkuJawsRT-39">
          <mxGeometry width="50" height="50" relative="1" as="geometry">
            <mxPoint x="230" y="650" as="sourcePoint" />
            <mxPoint x="260" y="620" as="targetPoint" />
          </mxGeometry>
        </mxCell>
        <mxCell id="_s3bPg3lB8pmkuJawsRT-48" value="Won_item" style="rounded=0;whiteSpace=wrap;html=1;container=0;" vertex="1" parent="1">
          <mxGeometry x="484.59517006802724" y="833.2967032967033" width="89.79591836734694" height="56.7032967032967" as="geometry" />
        </mxCell>
        <mxCell id="_s3bPg3lB8pmkuJawsRT-49" value="" style="endArrow=none;html=1;rounded=0;exitX=0.5;exitY=0;exitDx=0;exitDy=0;" edge="1" parent="1" source="_s3bPg3lB8pmkuJawsRT-48">
          <mxGeometry width="50" height="50" relative="1" as="geometry">
            <mxPoint x="230" y="550" as="sourcePoint" />
            <mxPoint x="529" y="330" as="targetPoint" />
          </mxGeometry>
        </mxCell>
        <mxCell id="_s3bPg3lB8pmkuJawsRT-51" value="" style="endArrow=none;html=1;rounded=0;" edge="1" parent="1">
          <mxGeometry width="50" height="50" relative="1" as="geometry">
            <mxPoint x="760" y="575" as="sourcePoint" />
            <mxPoint x="810" y="525" as="targetPoint" />
          </mxGeometry>
        </mxCell>
        <mxCell id="_s3bPg3lB8pmkuJawsRT-52" value="" style="edgeStyle=segmentEdgeStyle;endArrow=classic;html=1;curved=0;rounded=0;endSize=8;startSize=8;" edge="1" parent="1">
          <mxGeometry width="50" height="50" relative="1" as="geometry">
            <mxPoint x="530" y="330" as="sourcePoint" />
            <mxPoint x="90" y="300" as="targetPoint" />
          </mxGeometry>
        </mxCell>
      </root>
    </mxGraphModel>
  </diagram>
</mxfile>
